Coordinates
version=1
nRows=9
nColumns=24
inDegrees=yes

Units are S.I. units (second, meters, Newtons, ...)
Angles are in degrees.

endheader
time	pelvis_tilt	pelvis_list	pelvis_rotation	pelvis_tx	pelvis_ty	pelvis_tz	hip_flexion_r	hip_adduction_r	hip_rotation_r	knee_angle_r	ankle_angle_r	subtalar_angle_r	mtp_angle_r	hip_flexion_l	hip_adduction_l	hip_rotation_l	knee_angle_l	ankle_angle_l	subtalar_angle_l	mtp_angle_l	lumbar_extension	lumbar_bending	lumbar_rotation
      4.61000000	    -16.32485378	     -7.23485594	      1.94970447	      2.96911060	     -0.02487532	     -0.46772435	     33.33757809	      7.95078490	     -6.28428775	    -18.91343594	     -7.30867485	      0.75716197	     10.94502579	     14.72078535	    -13.39369960	    -12.58034803	    -50.38735972	    -32.20242785	     16.71162125	     30.13045032	     13.58444429	      8.31355861	     -5.53670400
      4.61500000	    -16.21875692	     -7.37975329	      1.99581253	      2.97509644	     -0.02417002	     -0.46736578	     32.75591549	      8.14445839	     -6.34001677	    -18.72714507	     -7.00184840	      0.83299971	     11.10941134	     15.48419107	    -13.63018889	    -12.27022850	    -51.77599447	    -31.67523314	     15.04098763	     29.46720980	     13.48579762	      8.45968442	     -5.47902189
      4.62000000	    -16.11800066	     -7.48607598	      2.04232167	      2.98111719	     -0.02340446	     -0.46702962	     32.15957436	      8.29892580	     -6.38991447	    -18.51315715	     -6.69526064	      0.95769932	     11.27681257	     16.24596048	    -13.80852064	    -11.97905604	    -53.10276575	    -31.02843430	     13.40927494	     28.68113313	     13.40410816	      8.56535369	     -5.38600406
      4.62500000	    -16.03929586	     -7.55828819	      2.05897934	      2.98713508	     -0.02262011	     -0.46668899	     31.57985997	      8.42567944	     -6.43996304	    -18.28986783	     -6.40799060	      1.17884246	     11.50481844	     17.02294593	    -13.94822690	    -11.73178492	    -54.39350452	    -30.20590634	     11.97655159	     27.63871199	     13.34644342	      8.64487100	     -5.23664042
      4.63000000	    -15.88757814	     -7.59255733	      2.10966191	      2.99312080	     -0.02167338	     -0.46629214	     30.89839985	      8.53762351	     -6.38024419	    -18.02429665	     -6.16504786	      1.15982218	     11.57216694	     17.70779489	    -14.03775815	    -11.49014701	    -55.54074096	    -29.53472925	     10.49347680	     26.98639786	     13.20809071	      8.66474326	     -5.10561720
      4.63500000	    -15.77354317	     -7.58490145	      2.10844521	      2.99916964	     -0.02076720	     -0.46588804	     30.25379491	      8.61348734	     -6.33507785	    -17.77404844	     -5.86894889	      1.33896200	     11.70169498	     18.40592503	    -14.09358570	    -11.33047250	    -56.65783578	    -28.65985659	      9.32693674	     25.95570225	     13.12009127	      8.65559992	     -4.92914882
      4.64000000	    -15.62374186	     -7.54007201	      2.12393228	      3.00515051	     -0.01976963	     -0.46543890	     29.56020628	      8.66714013	     -6.19551047	    -17.50011649	     -5.61486801	      1.36719324	     11.74070151	     19.05609953	    -14.10325297	    -11.17364775	    -57.65231594	    -27.94764705	      8.21524914	     25.26683835	     12.98756348	      8.59586379	     -4.77136069
      4.64500000	    -15.47783832	     -7.46580594	      2.12673990	      3.01118152	     -0.01874486	     -0.46497512	     28.85540965	      8.69844178	     -6.05487643	    -17.20830864	     -5.36820258	      1.38855562	     11.74762514	     19.68018571	    -14.08033577	    -11.04829026	    -58.54670985	    -27.25444838	      7.28404929	     24.66714942	     12.87052479	      8.50607748	     -4.56971536
      4.65000000	    -15.32950851	     -7.37936040	      2.11115912	      3.01710885	     -0.01771097	     -0.46446893	     28.15613558	      8.72638648	     -5.91000015	    -16.91911516	     -5.15979588	      1.39457833	     11.73407108	     20.29650547	    -14.04894632	    -10.93882172	    -59.36341040	    -26.63828370	      6.53225564	     24.24277134	     12.73317557	      8.40785691	     -4.31284083
